# xmcd
#
# Track frame offsets:
#	150
#	26751
#	49554
#	69783
#	92685
#	115059
#	133929
#	155874
#	182603
#	199635
#	218383
#	237343
#	259334
#
# Disc length: 4332 seconds
#
# Revision: 0
# Processed by: cddbd v1.5.2PL0 Copyright (c) Steve Scherf et al.
# Submitted via: FairStars CD Ripper 1.30
#
DISCID=b010ea0d
DTITLE=Woven Hand - Live at AB Brussels in Belgium - 9 fevr. 2003
DYEAR=2003
DGENRE=Country
TTITLE0=White Bird
TTITLE1=Bleary Eyed Duty
TTITLE2=Arrowhead
TTITLE3=Blue Pail Fever
TTITLE4=Cripplegate
TTITLE5=Out of My Hand
TTITLE6=Wooden Brother
TTITLE7=My Russia
TTITLE8=Glass Eye
TTITLE9=Story and Pictures
TTITLE10=Last Fist
TTITLE11=The Good Hand
TTITLE12=Aeolian Harp > Your Russia
EXTD=
EXTT0=
EXTT1=
EXTT2=
EXTT3=
EXTT4=
EXTT5=
EXTT6=
EXTT7=
EXTT8=
EXTT9=
EXTT10=
EXTT11=
EXTT12=
PLAYORDER=
